<svg width="182" height="111" viewBox="0 0 182 111" fill="none" xmlns="http://www.w3.org/2000/svg">
<path d="M19.9803 60.0952L151.082 44.7197L154.343 72.5291C155.566 82.9511 148.108 92.3906 137.686 93.6129L25.4549 106.775C15.033 107.998 5.59343 100.54 4.37114 90.1178L3.32281 81.179C2.10053 70.757 9.55836 61.3175 19.9803 60.0952Z" fill="#EF7DAF"/>
<path d="M19.9803 60.0952L151.082 44.7197L154.343 72.5291C155.566 82.9511 148.108 92.3906 137.686 93.6129L25.4549 106.775C15.033 107.998 5.59343 100.54 4.37114 90.1178L3.32281 81.179C2.10053 70.757 9.55836 61.3175 19.9803 60.0952Z" stroke="black" stroke-width="2"/>
<path d="M51.336 79.8497C51.5505 81.678 51.4057 83.2968 50.9016 84.7061C50.3975 86.1153 49.6123 87.2485 48.5458 88.1059C47.4793 88.9632 46.2068 89.4786 44.7283 89.652C43.2498 89.8254 41.8926 89.6184 40.6567 89.0311C39.4208 88.4438 38.3946 87.523 37.5781 86.2686C36.7617 85.0143 36.2463 83.4729 36.0318 81.6445C35.8174 79.8162 35.9622 78.1974 36.4663 76.7881C36.9703 75.3789 37.7556 74.2457 38.8221 73.3883C39.8886 72.531 41.1611 72.0156 42.6396 71.8422C44.1181 71.6688 45.4753 71.8758 46.7112 72.4631C47.9471 73.0504 48.9733 73.9712 49.7897 75.2256C50.6062 76.4799 51.1216 78.0213 51.336 79.8497ZM49.3045 80.0879C49.1285 78.5868 48.7288 77.3494 48.1054 76.3756C47.4877 75.4012 46.7217 74.6987 45.8074 74.2682C44.8987 73.837 43.9195 73.6829 42.8699 73.806C41.8203 73.9291 40.9005 74.3059 40.1106 74.9363C39.3263 75.566 38.7437 76.4267 38.3625 77.5183C37.987 78.6092 37.8873 79.9052 38.0634 81.4063C38.2394 82.9074 38.6363 84.1451 39.254 85.1196C39.8774 86.0934 40.6434 86.7959 41.5521 87.227C42.4664 87.6576 43.4484 87.8113 44.498 87.6882C45.5476 87.5651 46.4646 87.1887 47.2488 86.5589C48.0387 85.9285 48.6214 85.0679 48.9969 83.9769C49.378 82.8853 49.4806 81.589 49.3045 80.0879ZM60.9253 87.7867C59.7063 87.9297 58.623 87.765 57.6751 87.2926C56.7273 86.8203 55.9571 86.1068 55.3646 85.1523C54.7722 84.1978 54.3998 83.0715 54.2476 81.7736C54.0927 80.4531 54.1987 79.2594 54.5655 78.1923C54.9374 77.119 55.5272 76.246 56.335 75.5735C57.1479 74.8947 58.1412 74.4864 59.3149 74.3487C60.2291 74.2415 61.0729 74.3142 61.8462 74.5667C62.6195 74.8193 63.2761 75.2228 63.816 75.7774C64.3558 76.3319 64.7298 77.0088 64.938 77.8082L62.9403 78.0425C62.7185 77.4678 62.3183 76.9827 61.7399 76.5872C61.1665 76.1853 60.4396 76.036 59.5593 76.1393C58.7805 76.2306 58.1215 76.5139 57.5823 76.989C57.048 77.4578 56.6603 78.0782 56.419 78.8502C56.1827 79.6159 56.1221 80.4897 56.2373 81.4716C56.3551 82.4761 56.6157 83.3323 57.0191 84.0401C57.4281 84.7473 57.9474 85.2727 58.5769 85.6165C59.2121 85.9596 59.9248 86.0849 60.7148 85.9922C61.234 85.9313 61.6946 85.7858 62.0966 85.5556C62.4987 85.3253 62.8266 85.0237 63.0803 84.6507C63.3341 84.2777 63.4952 83.8469 63.5638 83.3583L65.5614 83.1241C65.5386 83.9048 65.3403 84.6288 64.9667 85.2962C64.598 85.9573 64.0708 86.5111 63.3852 86.9576C62.7046 87.3979 61.8846 87.6742 60.9253 87.7867ZM73.0561 72.9088L73.2546 74.6018L66.5167 75.392L66.3182 73.699L73.0561 72.9088ZM67.9167 70.3537L69.9143 70.1194L71.3677 82.5118C71.4339 83.0761 71.5654 83.4897 71.7621 83.7527C71.9638 84.0093 72.2001 84.1704 72.4709 84.2359C72.7467 84.2951 73.0314 84.3075 73.3248 84.273C73.5449 84.2472 73.7242 84.2148 73.8626 84.1757C74.0004 84.1309 74.1106 84.0951 74.1932 84.0682L74.81 85.8151C74.6805 85.8818 74.4974 85.9547 74.2607 86.034C74.0247 86.1189 73.7205 86.1831 73.348 86.2268C72.7837 86.293 72.2164 86.2365 71.6462 86.0574C71.0817 85.8776 70.5925 85.5603 70.1788 85.1054C69.7707 84.6498 69.5223 84.044 69.4336 83.2878L67.9167 70.3537ZM90.1415 84.3259C89.0241 84.457 88.0056 84.3819 87.0859 84.1008C86.1719 83.819 85.4181 83.3668 84.8244 82.7442C84.2358 82.1153 83.8657 81.3492 83.714 80.4459L85.8471 80.1958C85.9577 80.7492 86.2062 81.2091 86.5924 81.5757C86.978 81.9367 87.4574 82.1951 88.0306 82.351C88.6038 82.5069 89.2233 82.5458 89.8892 82.4677C90.6341 82.3803 91.2791 82.1731 91.8243 81.846C92.3695 81.5189 92.7785 81.1048 93.0516 80.6037C93.3246 80.1026 93.4254 79.5473 93.3539 78.9378C93.2791 78.3001 93.0553 77.7572 92.6823 77.3089C92.3087 76.855 91.801 76.5256 91.1591 76.3205C90.5172 76.1155 89.7561 76.0646 88.8758 76.1678L87.4876 76.3307L87.2692 74.4684L88.6574 74.3056C89.3458 74.2249 89.9351 74.0299 90.4251 73.7207C90.9208 73.4109 91.2889 73.013 91.5294 72.5271C91.7756 72.0406 91.8629 71.4926 91.7914 70.8832C91.7226 70.2963 91.5329 69.8008 91.2224 69.3967C90.9118 68.9926 90.5053 68.6971 90.0028 68.51C89.506 68.3223 88.9387 68.2658 88.3011 68.3406C87.7029 68.4108 87.1515 68.587 86.6468 68.8693C86.1472 69.1453 85.755 69.5088 85.4704 69.9597C85.1851 70.4051 85.0621 70.9172 85.1014 71.4961L83.0698 71.7344C82.9972 70.8219 83.1775 69.9941 83.611 69.2511C84.0438 68.5024 84.6524 67.8875 85.437 67.4065C86.2271 66.9248 87.1216 66.6254 88.1205 66.5082C89.1927 66.3825 90.138 66.4919 90.9564 66.8364C91.7742 67.1753 92.4304 67.6732 92.9251 68.3303C93.4198 68.9874 93.7151 69.7251 93.811 70.5433C93.9255 71.5196 93.7664 72.3821 93.3336 73.1308C92.9065 73.8788 92.2711 74.4367 91.4275 74.8045L91.4434 74.94C92.5594 74.9921 93.4689 75.3574 94.172 76.0358C94.8745 76.7086 95.2902 77.5952 95.4193 78.6956C95.5298 79.638 95.3723 80.5146 94.9468 81.3253C94.5263 82.1298 93.901 82.7981 93.071 83.3302C92.241 83.8623 91.2645 84.1942 90.1415 84.3259ZM105.79 72.5194L106.009 74.3816L98.4244 75.2711L98.206 73.4089L105.79 72.5194ZM109.574 78.2026L109.371 76.4758L115.576 63.5285L116.829 63.3816L117.143 66.0565L116.296 66.1557L111.608 75.9388L111.624 76.0743L121.883 74.8711L122.102 76.7333L109.574 78.2026ZM118.151 80.8007L117.672 76.7208L117.578 75.9166L116.118 63.465L118.115 63.2307L120.149 80.5665L118.151 80.8007Z" fill="white"/>
<path d="M136.079 37.4476L179.333 11.354L161.079 55.4477L158.663 35.0688L136.079 37.4476Z" fill="#EF7DAF" stroke="black" stroke-width="2"/>
</svg>
