<svg width="226" height="130" viewBox="0 0 226 130" fill="none" xmlns="http://www.w3.org/2000/svg">
<path d="M205.393 78.2724C215.562 80.859 221.709 91.2 219.123 101.37L216.904 110.092C214.318 120.261 203.977 126.409 193.807 123.822L43.59 85.6149C33.4204 83.0282 27.2731 72.6873 29.8597 62.5177L36.7617 35.3817L205.393 78.2724Z" fill="#D2F775"/>
<path d="M205.393 78.2724C215.562 80.859 221.709 91.2 219.123 101.37L216.904 110.092C214.318 120.261 203.977 126.409 193.807 123.822L43.59 85.6149C33.4204 83.0282 27.2731 72.6873 29.8597 62.5177L36.7617 35.3817L205.393 78.2724Z" stroke="black" stroke-width="2"/>
<path d="M50.0298 71.7749L47.8823 71.2287L58.3961 55.8925L60.5106 56.4304L62.4194 74.9261L60.2719 74.3799L58.8388 58.8544L58.7066 58.8208L50.0298 71.7749ZM52.5034 65.3688L61.1596 67.5704L60.6974 69.3876L52.0412 67.1859L52.5034 65.3688ZM68.6804 68.3929L66.7393 76.0249L64.79 75.5291L68.0169 62.8421L69.9001 63.3211L69.3959 65.3034L69.5611 65.3455C70.0223 64.7768 70.6055 64.3741 71.3106 64.1372C72.0172 63.8948 72.8495 63.8954 73.8076 64.1391C74.6667 64.3576 75.3735 64.725 75.9281 65.2413C76.4841 65.752 76.8508 66.4081 77.028 67.2095C77.2067 68.0053 77.1587 68.9429 76.8842 70.0222L74.8338 78.0837L72.8845 77.5879L74.9013 69.6586C75.1548 68.6619 75.0935 67.8196 74.7173 67.1318C74.3426 66.4385 73.7037 65.977 72.8006 65.7473C72.1784 65.5891 71.5879 65.5825 71.0292 65.7277C70.476 65.8742 69.9932 66.1706 69.5807 66.6168C69.1682 67.063 68.8681 67.655 68.6804 68.3929ZM82.2863 71.8535L80.3451 79.4855L78.3958 78.9897L81.6227 66.3027L83.5059 66.7817L83.0017 68.7641L83.1669 68.8061C83.6281 68.2374 84.2113 67.8347 84.9165 67.5978C85.623 67.3554 86.4554 67.356 87.4135 67.5997C88.2725 67.8182 88.9793 68.1856 89.534 68.7019C90.09 69.2126 90.4566 69.8687 90.6339 70.6701C90.8125 71.466 90.7646 72.4035 90.4901 73.4828L88.4397 81.5443L86.4904 81.0485L88.5072 73.1192C88.7607 72.1225 88.6994 71.2802 88.3232 70.5924C87.9484 69.8991 87.3095 69.4376 86.4065 69.2079C85.7842 69.0497 85.1938 69.0431 84.6351 69.1883C84.0819 69.3348 83.599 69.6312 83.1865 70.0774C82.7741 70.5236 82.474 71.1156 82.2863 71.8535ZM99.5015 84.3579L97.354 83.8116L107.868 68.4755L109.982 69.0133L111.891 87.5091L109.744 86.9629L108.31 71.4374L108.178 71.4038L99.5015 84.3579ZM101.975 77.9517L110.631 80.1534L110.169 81.9706L101.513 79.7689L101.975 77.9517ZM114.262 88.1121L117.489 75.4251L119.372 75.9041L118.884 77.8203L119.017 77.854C119.407 77.285 119.956 76.8821 120.661 76.6452C121.366 76.4083 122.098 76.3865 122.858 76.5798C123.001 76.6162 123.18 76.6645 123.393 76.7246C123.606 76.7847 123.767 76.8343 123.874 76.8733L123.37 78.8557C123.308 78.8224 123.163 78.7591 122.934 78.6658C122.713 78.5684 122.473 78.4868 122.214 78.421C121.597 78.2641 121.014 78.2535 120.463 78.389C119.92 78.5205 119.45 78.7763 119.055 79.1564C118.666 79.5324 118.399 80.0067 118.253 80.5794L116.211 88.6079L114.262 88.1121ZM123.18 90.3804L127.483 73.4645L129.432 73.9603L127.844 80.2047L128.009 80.2467C128.208 80.0628 128.478 79.8324 128.818 79.5554C129.165 79.2744 129.612 79.0598 130.16 78.9119C130.715 78.7598 131.405 78.7888 132.231 78.9989C133.299 79.2706 134.173 79.7771 134.852 80.5186C135.531 81.26 135.974 82.1789 136.182 83.2753C136.39 84.3717 136.324 85.5862 135.985 86.9187C135.644 88.2623 135.119 89.3688 134.411 90.2382C133.705 91.1021 132.878 91.701 131.932 92.0347C130.986 92.363 129.985 92.3927 128.928 92.1237C128.113 91.9165 127.495 91.6156 127.073 91.2211C126.653 90.8211 126.355 90.4141 126.179 90C126.004 89.5803 125.875 89.2366 125.79 88.969L125.559 88.9101L125.063 90.8594L123.18 90.3804ZM126.71 84.5244C126.466 85.4825 126.392 86.3634 126.486 87.1672C126.582 87.9655 126.847 88.6398 127.282 89.19C127.718 89.7348 128.327 90.1066 129.109 90.3055C129.924 90.5127 130.658 90.471 131.313 90.1801C131.974 89.8851 132.536 89.4065 132.997 88.7442C133.466 88.0777 133.815 87.293 134.045 86.3899C134.271 85.4978 134.338 84.6589 134.245 83.873C134.159 83.083 133.893 82.4088 133.449 81.8502C133.012 81.2876 132.38 80.9012 131.554 80.6911C130.761 80.4894 130.044 80.521 129.402 80.7857C128.762 81.0449 128.213 81.4974 127.755 82.1432C127.299 82.7835 126.951 83.5772 126.71 84.5244ZM142.449 95.5628C141.304 95.2715 140.368 94.7433 139.642 93.9783C138.922 93.2147 138.444 92.2812 138.209 91.1777C137.979 90.0757 138.031 88.8695 138.364 87.5589C138.7 86.2374 139.233 85.1447 139.963 84.2809C140.698 83.4184 141.565 82.8239 142.562 82.4973C143.565 82.172 144.64 82.155 145.785 82.4463C146.93 82.7377 147.863 83.2651 148.584 84.0288C149.31 84.7938 149.787 85.7301 150.015 86.8376C150.249 87.9465 150.198 89.1617 149.862 90.4833C149.528 91.7938 148.995 92.8776 148.261 93.7345C147.532 94.5928 146.667 95.1846 145.664 95.5098C144.666 95.8365 143.594 95.8541 142.449 95.5628ZM142.894 93.8118C143.764 94.033 144.537 93.9921 145.212 93.6889C145.887 93.3858 146.452 92.9051 146.907 92.2468C147.361 91.5886 147.697 90.8355 147.912 89.9875C148.128 89.1395 148.194 88.315 148.111 87.514C148.027 86.713 147.762 86.0153 147.315 85.4209C146.868 84.8265 146.21 84.4187 145.34 84.1974C144.47 83.9761 143.696 84.0198 143.02 84.3285C142.343 84.6372 141.777 85.1234 141.321 85.7871C140.865 86.4508 140.529 87.2067 140.313 88.0547C140.098 88.9027 140.032 89.7245 140.117 90.5199C140.202 91.3154 140.469 92.0076 140.917 92.5965C141.365 93.1854 142.024 93.5905 142.894 93.8118ZM151.241 97.5175L154.467 84.8306L156.351 85.3095L155.863 87.2258L155.995 87.2594C156.386 86.6905 156.934 86.2876 157.64 86.0507C158.345 85.8138 159.077 85.792 159.837 85.9853C159.98 86.0217 160.159 86.0699 160.372 86.1301C160.585 86.1902 160.746 86.2398 160.853 86.2788L160.349 88.2611C160.287 88.2278 160.142 88.1645 159.913 88.0713C159.692 87.9739 159.452 87.8923 159.193 87.8265C158.576 87.6696 157.993 87.659 157.442 87.7945C156.899 87.926 156.429 88.1817 156.034 88.5618C155.645 88.9378 155.378 89.4122 155.232 89.9848L153.19 98.0133L151.241 97.5175ZM161.937 97.7757L161.578 98.6341C161.324 99.2381 161.01 99.8734 160.635 100.54C160.266 101.208 159.899 101.833 159.534 102.415C159.17 102.996 158.873 103.457 158.646 103.798L157.159 103.42C157.321 103.086 157.532 102.644 157.795 102.096C158.058 101.547 158.338 100.929 158.636 100.243C158.938 99.5632 159.222 98.8615 159.488 98.1378L159.822 97.2379L161.937 97.7757ZM176.069 85.8222L178.513 86.444L180.691 101.948L180.889 101.998L190.209 89.4188L192.654 90.0406L188.352 106.957L186.435 106.469L189.704 93.617L189.539 93.575L180.984 105.083L179.134 104.612L177.116 90.4154L176.951 90.3733L173.682 103.226L171.766 102.738L176.069 85.8222ZM198.81 91.6063L194.507 108.522L192.459 108.001L196.761 91.0853L198.81 91.6063Z" fill="black"/>
<path d="M25.9674 49.0025L18.459 2.66651L49.8021 31.1735L31.4798 26.2143L25.9674 49.0025Z" fill="#D2F775" stroke="black" stroke-width="2"/>
</svg>
